<mxfile host="app.diagrams.net" modified="2024-07-19T16:13:44.226Z" agent="Mozilla/5.0 (Macintosh; Intel Mac OS X 10_15_7) AppleWebKit/537.36 (KHTML, like Gecko) Chrome/126.0.0.0 Safari/537.36" etag="OvcrlMNhzQnaAnSsKXuG" version="24.7.2" type="device">
  <diagram name="Page-1" id="Fv39xRMCSudh84HE4Kij">
    <mxGraphModel dx="1381" dy="1032" grid="0" gridSize="10" guides="1" tooltips="1" connect="1" arrows="1" fold="1" page="0" pageScale="1" pageWidth="850" pageHeight="1100" math="0" shadow="0">
      <root>
        <mxCell id="0" />
        <mxCell id="1" parent="0" />
        <mxCell id="WsYyPWO9Wi_YC0OJkW0D-1" value="communityStats" style="swimlane;fontStyle=0;childLayout=stackLayout;horizontal=1;startSize=30;horizontalStack=0;resizeParent=1;resizeParentMax=0;resizeLast=0;collapsible=1;marginBottom=0;whiteSpace=wrap;html=1;" vertex="1" parent="1">
          <mxGeometry x="137" y="-71" width="140" height="120" as="geometry" />
        </mxCell>
        <mxCell id="WsYyPWO9Wi_YC0OJkW0D-2" value="numUsers:int" style="text;strokeColor=none;fillColor=none;align=left;verticalAlign=middle;spacingLeft=4;spacingRight=4;overflow=hidden;points=[[0,0.5],[1,0.5]];portConstraint=eastwest;rotatable=0;whiteSpace=wrap;html=1;" vertex="1" parent="WsYyPWO9Wi_YC0OJkW0D-1">
          <mxGeometry y="30" width="140" height="30" as="geometry" />
        </mxCell>
        <mxCell id="WsYyPWO9Wi_YC0OJkW0D-3" value="moderators:Str" style="text;strokeColor=none;fillColor=none;align=left;verticalAlign=middle;spacingLeft=4;spacingRight=4;overflow=hidden;points=[[0,0.5],[1,0.5]];portConstraint=eastwest;rotatable=0;whiteSpace=wrap;html=1;" vertex="1" parent="WsYyPWO9Wi_YC0OJkW0D-1">
          <mxGeometry y="60" width="140" height="30" as="geometry" />
        </mxCell>
        <mxCell id="WsYyPWO9Wi_YC0OJkW0D-4" value="owner:Str" style="text;strokeColor=none;fillColor=none;align=left;verticalAlign=middle;spacingLeft=4;spacingRight=4;overflow=hidden;points=[[0,0.5],[1,0.5]];portConstraint=eastwest;rotatable=0;whiteSpace=wrap;html=1;" vertex="1" parent="WsYyPWO9Wi_YC0OJkW0D-1">
          <mxGeometry y="90" width="140" height="30" as="geometry" />
        </mxCell>
        <mxCell id="WsYyPWO9Wi_YC0OJkW0D-5" value="Community" style="swimlane;fontStyle=0;childLayout=stackLayout;horizontal=1;startSize=30;horizontalStack=0;resizeParent=1;resizeParentMax=0;resizeLast=0;collapsible=1;marginBottom=0;whiteSpace=wrap;html=1;" vertex="1" parent="1">
          <mxGeometry x="308" y="77" width="140" height="120" as="geometry" />
        </mxCell>
        <mxCell id="WsYyPWO9Wi_YC0OJkW0D-6" value="name:Str" style="text;strokeColor=none;fillColor=none;align=left;verticalAlign=middle;spacingLeft=4;spacingRight=4;overflow=hidden;points=[[0,0.5],[1,0.5]];portConstraint=eastwest;rotatable=0;whiteSpace=wrap;html=1;" vertex="1" parent="WsYyPWO9Wi_YC0OJkW0D-5">
          <mxGeometry y="30" width="140" height="30" as="geometry" />
        </mxCell>
        <mxCell id="WsYyPWO9Wi_YC0OJkW0D-7" value="description:Str" style="text;strokeColor=none;fillColor=none;align=left;verticalAlign=middle;spacingLeft=4;spacingRight=4;overflow=hidden;points=[[0,0.5],[1,0.5]];portConstraint=eastwest;rotatable=0;whiteSpace=wrap;html=1;" vertex="1" parent="WsYyPWO9Wi_YC0OJkW0D-5">
          <mxGeometry y="60" width="140" height="30" as="geometry" />
        </mxCell>
        <mxCell id="WsYyPWO9Wi_YC0OJkW0D-8" value="tags:Str" style="text;strokeColor=none;fillColor=none;align=left;verticalAlign=middle;spacingLeft=4;spacingRight=4;overflow=hidden;points=[[0,0.5],[1,0.5]];portConstraint=eastwest;rotatable=0;whiteSpace=wrap;html=1;" vertex="1" parent="WsYyPWO9Wi_YC0OJkW0D-5">
          <mxGeometry y="90" width="140" height="30" as="geometry" />
        </mxCell>
        <mxCell id="WsYyPWO9Wi_YC0OJkW0D-9" value="User" style="swimlane;fontStyle=0;childLayout=stackLayout;horizontal=1;startSize=30;horizontalStack=0;resizeParent=1;resizeParentMax=0;resizeLast=0;collapsible=1;marginBottom=0;whiteSpace=wrap;html=1;" vertex="1" parent="1">
          <mxGeometry x="-45" y="77" width="140" height="172" as="geometry" />
        </mxCell>
        <mxCell id="WsYyPWO9Wi_YC0OJkW0D-10" value="username:Str" style="text;strokeColor=none;fillColor=none;align=left;verticalAlign=middle;spacingLeft=4;spacingRight=4;overflow=hidden;points=[[0,0.5],[1,0.5]];portConstraint=eastwest;rotatable=0;whiteSpace=wrap;html=1;" vertex="1" parent="WsYyPWO9Wi_YC0OJkW0D-9">
          <mxGeometry y="30" width="140" height="30" as="geometry" />
        </mxCell>
        <mxCell id="WsYyPWO9Wi_YC0OJkW0D-11" value="password:Str" style="text;strokeColor=none;fillColor=none;align=left;verticalAlign=middle;spacingLeft=4;spacingRight=4;overflow=hidden;points=[[0,0.5],[1,0.5]];portConstraint=eastwest;rotatable=0;whiteSpace=wrap;html=1;" vertex="1" parent="WsYyPWO9Wi_YC0OJkW0D-9">
          <mxGeometry y="60" width="140" height="30" as="geometry" />
        </mxCell>
        <mxCell id="WsYyPWO9Wi_YC0OJkW0D-12" value="birthday:Date" style="text;strokeColor=none;fillColor=none;align=left;verticalAlign=middle;spacingLeft=4;spacingRight=4;overflow=hidden;points=[[0,0.5],[1,0.5]];portConstraint=eastwest;rotatable=0;whiteSpace=wrap;html=1;" vertex="1" parent="WsYyPWO9Wi_YC0OJkW0D-9">
          <mxGeometry y="90" width="140" height="30" as="geometry" />
        </mxCell>
        <mxCell id="WsYyPWO9Wi_YC0OJkW0D-22" value="emailAddress:Str" style="text;strokeColor=none;fillColor=none;align=left;verticalAlign=top;spacingLeft=4;spacingRight=4;overflow=hidden;rotatable=0;points=[[0,0.5],[1,0.5]];portConstraint=eastwest;whiteSpace=wrap;html=1;" vertex="1" parent="WsYyPWO9Wi_YC0OJkW0D-9">
          <mxGeometry y="120" width="140" height="26" as="geometry" />
        </mxCell>
        <mxCell id="WsYyPWO9Wi_YC0OJkW0D-42" value="+ item: attribute" style="text;strokeColor=none;fillColor=none;align=left;verticalAlign=top;spacingLeft=4;spacingRight=4;overflow=hidden;rotatable=0;points=[[0,0.5],[1,0.5]];portConstraint=eastwest;whiteSpace=wrap;html=1;" vertex="1" parent="WsYyPWO9Wi_YC0OJkW0D-9">
          <mxGeometry y="146" width="140" height="26" as="geometry" />
        </mxCell>
        <mxCell id="WsYyPWO9Wi_YC0OJkW0D-13" value="Post" style="swimlane;fontStyle=0;childLayout=stackLayout;horizontal=1;startSize=30;horizontalStack=0;resizeParent=1;resizeParentMax=0;resizeLast=0;collapsible=1;marginBottom=0;whiteSpace=wrap;html=1;" vertex="1" parent="1">
          <mxGeometry x="311" y="332" width="140" height="146" as="geometry" />
        </mxCell>
        <mxCell id="WsYyPWO9Wi_YC0OJkW0D-14" value="upvotes:Int" style="text;strokeColor=none;fillColor=none;align=left;verticalAlign=middle;spacingLeft=4;spacingRight=4;overflow=hidden;points=[[0,0.5],[1,0.5]];portConstraint=eastwest;rotatable=0;whiteSpace=wrap;html=1;" vertex="1" parent="WsYyPWO9Wi_YC0OJkW0D-13">
          <mxGeometry y="30" width="140" height="30" as="geometry" />
        </mxCell>
        <mxCell id="WsYyPWO9Wi_YC0OJkW0D-15" value="downvotes:int" style="text;strokeColor=none;fillColor=none;align=left;verticalAlign=middle;spacingLeft=4;spacingRight=4;overflow=hidden;points=[[0,0.5],[1,0.5]];portConstraint=eastwest;rotatable=0;whiteSpace=wrap;html=1;" vertex="1" parent="WsYyPWO9Wi_YC0OJkW0D-13">
          <mxGeometry y="60" width="140" height="30" as="geometry" />
        </mxCell>
        <mxCell id="WsYyPWO9Wi_YC0OJkW0D-16" value="text:String" style="text;strokeColor=none;fillColor=none;align=left;verticalAlign=middle;spacingLeft=4;spacingRight=4;overflow=hidden;points=[[0,0.5],[1,0.5]];portConstraint=eastwest;rotatable=0;whiteSpace=wrap;html=1;" vertex="1" parent="WsYyPWO9Wi_YC0OJkW0D-13">
          <mxGeometry y="90" width="140" height="30" as="geometry" />
        </mxCell>
        <mxCell id="WsYyPWO9Wi_YC0OJkW0D-21" value="file:Str" style="text;strokeColor=none;fillColor=none;align=left;verticalAlign=top;spacingLeft=4;spacingRight=4;overflow=hidden;rotatable=0;points=[[0,0.5],[1,0.5]];portConstraint=eastwest;whiteSpace=wrap;html=1;" vertex="1" parent="WsYyPWO9Wi_YC0OJkW0D-13">
          <mxGeometry y="120" width="140" height="26" as="geometry" />
        </mxCell>
        <mxCell id="WsYyPWO9Wi_YC0OJkW0D-17" value="Comment" style="swimlane;fontStyle=0;childLayout=stackLayout;horizontal=1;startSize=30;horizontalStack=0;resizeParent=1;resizeParentMax=0;resizeLast=0;collapsible=1;marginBottom=0;whiteSpace=wrap;html=1;" vertex="1" parent="1">
          <mxGeometry x="-43" y="332" width="140" height="120" as="geometry" />
        </mxCell>
        <mxCell id="WsYyPWO9Wi_YC0OJkW0D-18" value="text:String" style="text;strokeColor=none;fillColor=none;align=left;verticalAlign=middle;spacingLeft=4;spacingRight=4;overflow=hidden;points=[[0,0.5],[1,0.5]];portConstraint=eastwest;rotatable=0;whiteSpace=wrap;html=1;" vertex="1" parent="WsYyPWO9Wi_YC0OJkW0D-17">
          <mxGeometry y="30" width="140" height="30" as="geometry" />
        </mxCell>
        <mxCell id="WsYyPWO9Wi_YC0OJkW0D-19" value="upvotes:int" style="text;strokeColor=none;fillColor=none;align=left;verticalAlign=middle;spacingLeft=4;spacingRight=4;overflow=hidden;points=[[0,0.5],[1,0.5]];portConstraint=eastwest;rotatable=0;whiteSpace=wrap;html=1;" vertex="1" parent="WsYyPWO9Wi_YC0OJkW0D-17">
          <mxGeometry y="60" width="140" height="30" as="geometry" />
        </mxCell>
        <mxCell id="WsYyPWO9Wi_YC0OJkW0D-20" value="downvotes:int" style="text;strokeColor=none;fillColor=none;align=left;verticalAlign=middle;spacingLeft=4;spacingRight=4;overflow=hidden;points=[[0,0.5],[1,0.5]];portConstraint=eastwest;rotatable=0;whiteSpace=wrap;html=1;" vertex="1" parent="WsYyPWO9Wi_YC0OJkW0D-17">
          <mxGeometry y="90" width="140" height="30" as="geometry" />
        </mxCell>
        <mxCell id="WsYyPWO9Wi_YC0OJkW0D-23" value="" style="endArrow=none;html=1;rounded=0;fontSize=12;startSize=8;endSize=8;curved=1;exitX=1;exitY=0.5;exitDx=0;exitDy=0;entryX=0;entryY=0.5;entryDx=0;entryDy=0;" edge="1" parent="1" source="WsYyPWO9Wi_YC0OJkW0D-10" target="WsYyPWO9Wi_YC0OJkW0D-6">
          <mxGeometry width="50" height="50" relative="1" as="geometry">
            <mxPoint x="175" y="219" as="sourcePoint" />
            <mxPoint x="225" y="169" as="targetPoint" />
          </mxGeometry>
        </mxCell>
        <mxCell id="WsYyPWO9Wi_YC0OJkW0D-24" value="1..*" style="edgeLabel;html=1;align=center;verticalAlign=middle;resizable=0;points=[];fontSize=12;" vertex="1" connectable="0" parent="WsYyPWO9Wi_YC0OJkW0D-23">
          <mxGeometry x="-0.7991" relative="1" as="geometry">
            <mxPoint x="1" as="offset" />
          </mxGeometry>
        </mxCell>
        <mxCell id="WsYyPWO9Wi_YC0OJkW0D-25" value="0..*" style="edgeLabel;html=1;align=center;verticalAlign=middle;resizable=0;points=[];fontSize=12;" vertex="1" connectable="0" parent="WsYyPWO9Wi_YC0OJkW0D-23">
          <mxGeometry x="0.7804" relative="1" as="geometry">
            <mxPoint as="offset" />
          </mxGeometry>
        </mxCell>
        <mxCell id="WsYyPWO9Wi_YC0OJkW0D-26" value="" style="endArrow=none;html=1;rounded=0;fontSize=12;startSize=8;endSize=8;curved=1;exitX=1;exitY=0.5;exitDx=0;exitDy=0;entryX=0;entryY=0;entryDx=0;entryDy=0;" edge="1" parent="1" source="WsYyPWO9Wi_YC0OJkW0D-22" target="WsYyPWO9Wi_YC0OJkW0D-13">
          <mxGeometry width="50" height="50" relative="1" as="geometry">
            <mxPoint x="175" y="219" as="sourcePoint" />
            <mxPoint x="225" y="169" as="targetPoint" />
          </mxGeometry>
        </mxCell>
        <mxCell id="WsYyPWO9Wi_YC0OJkW0D-27" value="0..*" style="edgeLabel;html=1;align=center;verticalAlign=middle;resizable=0;points=[];fontSize=12;" vertex="1" connectable="0" parent="WsYyPWO9Wi_YC0OJkW0D-26">
          <mxGeometry x="0.8005" relative="1" as="geometry">
            <mxPoint as="offset" />
          </mxGeometry>
        </mxCell>
        <mxCell id="WsYyPWO9Wi_YC0OJkW0D-31" value="1" style="edgeLabel;html=1;align=center;verticalAlign=middle;resizable=0;points=[];fontSize=12;" vertex="1" connectable="0" parent="WsYyPWO9Wi_YC0OJkW0D-26">
          <mxGeometry x="-0.8167" relative="1" as="geometry">
            <mxPoint as="offset" />
          </mxGeometry>
        </mxCell>
        <mxCell id="WsYyPWO9Wi_YC0OJkW0D-28" value="" style="endArrow=none;html=1;rounded=0;fontSize=12;startSize=8;endSize=8;curved=1;exitX=1;exitY=0.5;exitDx=0;exitDy=0;entryX=0;entryY=0.5;entryDx=0;entryDy=0;" edge="1" parent="1" source="WsYyPWO9Wi_YC0OJkW0D-18" target="WsYyPWO9Wi_YC0OJkW0D-16">
          <mxGeometry width="50" height="50" relative="1" as="geometry">
            <mxPoint x="175" y="219" as="sourcePoint" />
            <mxPoint x="225" y="169" as="targetPoint" />
          </mxGeometry>
        </mxCell>
        <mxCell id="WsYyPWO9Wi_YC0OJkW0D-29" value="0..*" style="edgeLabel;html=1;align=center;verticalAlign=middle;resizable=0;points=[];fontSize=12;" vertex="1" connectable="0" parent="WsYyPWO9Wi_YC0OJkW0D-28">
          <mxGeometry x="-0.8497" y="2" relative="1" as="geometry">
            <mxPoint as="offset" />
          </mxGeometry>
        </mxCell>
        <mxCell id="WsYyPWO9Wi_YC0OJkW0D-30" value="1" style="edgeLabel;html=1;align=center;verticalAlign=middle;resizable=0;points=[];fontSize=12;" vertex="1" connectable="0" parent="WsYyPWO9Wi_YC0OJkW0D-28">
          <mxGeometry x="0.7336" relative="1" as="geometry">
            <mxPoint as="offset" />
          </mxGeometry>
        </mxCell>
        <mxCell id="WsYyPWO9Wi_YC0OJkW0D-32" value="" style="endArrow=none;html=1;rounded=0;fontSize=12;startSize=8;endSize=8;curved=1;exitX=0.5;exitY=0;exitDx=0;exitDy=0;entryX=0.504;entryY=1.033;entryDx=0;entryDy=0;entryPerimeter=0;" edge="1" parent="1" source="WsYyPWO9Wi_YC0OJkW0D-13" target="WsYyPWO9Wi_YC0OJkW0D-8">
          <mxGeometry width="50" height="50" relative="1" as="geometry">
            <mxPoint x="175" y="219" as="sourcePoint" />
            <mxPoint x="225" y="169" as="targetPoint" />
          </mxGeometry>
        </mxCell>
        <mxCell id="WsYyPWO9Wi_YC0OJkW0D-36" value="1" style="edgeLabel;html=1;align=center;verticalAlign=middle;resizable=0;points=[];fontSize=12;" vertex="1" connectable="0" parent="WsYyPWO9Wi_YC0OJkW0D-32">
          <mxGeometry x="0.708" y="1" relative="1" as="geometry">
            <mxPoint as="offset" />
          </mxGeometry>
        </mxCell>
        <mxCell id="WsYyPWO9Wi_YC0OJkW0D-37" value="0..*" style="edgeLabel;html=1;align=center;verticalAlign=middle;resizable=0;points=[];fontSize=12;" vertex="1" connectable="0" parent="WsYyPWO9Wi_YC0OJkW0D-32">
          <mxGeometry x="-0.6875" relative="1" as="geometry">
            <mxPoint as="offset" />
          </mxGeometry>
        </mxCell>
        <mxCell id="WsYyPWO9Wi_YC0OJkW0D-33" value="" style="endArrow=none;html=1;rounded=0;fontSize=12;startSize=8;endSize=8;curved=1;exitX=0.5;exitY=0;exitDx=0;exitDy=0;entryX=0.504;entryY=1.077;entryDx=0;entryDy=0;entryPerimeter=0;" edge="1" parent="1" source="WsYyPWO9Wi_YC0OJkW0D-17" target="WsYyPWO9Wi_YC0OJkW0D-42">
          <mxGeometry width="50" height="50" relative="1" as="geometry">
            <mxPoint x="17" y="322" as="sourcePoint" />
            <mxPoint x="28" y="287" as="targetPoint" />
          </mxGeometry>
        </mxCell>
        <mxCell id="WsYyPWO9Wi_YC0OJkW0D-34" value="1" style="edgeLabel;html=1;align=center;verticalAlign=middle;resizable=0;points=[];fontSize=12;" vertex="1" connectable="0" parent="WsYyPWO9Wi_YC0OJkW0D-33">
          <mxGeometry x="0.652" y="1" relative="1" as="geometry">
            <mxPoint as="offset" />
          </mxGeometry>
        </mxCell>
        <mxCell id="WsYyPWO9Wi_YC0OJkW0D-35" value="0..*" style="edgeLabel;html=1;align=center;verticalAlign=middle;resizable=0;points=[];fontSize=12;" vertex="1" connectable="0" parent="WsYyPWO9Wi_YC0OJkW0D-33">
          <mxGeometry x="-0.5941" relative="1" as="geometry">
            <mxPoint as="offset" />
          </mxGeometry>
        </mxCell>
        <mxCell id="WsYyPWO9Wi_YC0OJkW0D-38" value="Business" style="swimlane;fontStyle=0;childLayout=stackLayout;horizontal=1;startSize=30;horizontalStack=0;resizeParent=1;resizeParentMax=0;resizeLast=0;collapsible=1;marginBottom=0;whiteSpace=wrap;html=1;" vertex="1" parent="1">
          <mxGeometry x="508" y="115" width="140" height="120" as="geometry" />
        </mxCell>
        <mxCell id="WsYyPWO9Wi_YC0OJkW0D-39" value="name:String" style="text;strokeColor=none;fillColor=none;align=left;verticalAlign=middle;spacingLeft=4;spacingRight=4;overflow=hidden;points=[[0,0.5],[1,0.5]];portConstraint=eastwest;rotatable=0;whiteSpace=wrap;html=1;" vertex="1" parent="WsYyPWO9Wi_YC0OJkW0D-38">
          <mxGeometry y="30" width="140" height="30" as="geometry" />
        </mxCell>
        <mxCell id="WsYyPWO9Wi_YC0OJkW0D-40" value="payment:double" style="text;strokeColor=none;fillColor=none;align=left;verticalAlign=middle;spacingLeft=4;spacingRight=4;overflow=hidden;points=[[0,0.5],[1,0.5]];portConstraint=eastwest;rotatable=0;whiteSpace=wrap;html=1;" vertex="1" parent="WsYyPWO9Wi_YC0OJkW0D-38">
          <mxGeometry y="60" width="140" height="30" as="geometry" />
        </mxCell>
        <mxCell id="WsYyPWO9Wi_YC0OJkW0D-41" value="ad:String" style="text;strokeColor=none;fillColor=none;align=left;verticalAlign=middle;spacingLeft=4;spacingRight=4;overflow=hidden;points=[[0,0.5],[1,0.5]];portConstraint=eastwest;rotatable=0;whiteSpace=wrap;html=1;" vertex="1" parent="WsYyPWO9Wi_YC0OJkW0D-38">
          <mxGeometry y="90" width="140" height="30" as="geometry" />
        </mxCell>
        <mxCell id="WsYyPWO9Wi_YC0OJkW0D-43" value="" style="endArrow=none;dashed=1;html=1;rounded=0;fontSize=12;startSize=8;endSize=8;curved=1;entryX=0.475;entryY=0.967;entryDx=0;entryDy=0;entryPerimeter=0;" edge="1" parent="1" target="WsYyPWO9Wi_YC0OJkW0D-4">
          <mxGeometry width="50" height="50" relative="1" as="geometry">
            <mxPoint x="204" y="123" as="sourcePoint" />
            <mxPoint x="187" y="169" as="targetPoint" />
          </mxGeometry>
        </mxCell>
      </root>
    </mxGraphModel>
  </diagram>
</mxfile>
